<svg width="90" height="115" viewBox="0 0 90 115" fill="none" xmlns="http://www.w3.org/2000/svg">
<path d="M17.034 77.8848L13.4989 72.1582L10.9779 67.9531H13.4989L14.5139 61.5527L13.4989 55.3242L9.45901 52.9668L6.4269 51.6191L4.74392 49.9355C4.43192 49.7225 1.74899 47.8265 2.38699 46.2305C2.65273 45.2702 2.67577 44.2585 2.454 43.2871C2.22513 41.9219 2.20252 40.5301 2.38699 39.1582C2.62799 37.6092 2.99192 37.4004 3.31692 37.4004C3.46506 37.4091 3.61101 37.4399 3.7499 37.4922C3.89773 37.5427 4.05189 37.5722 4.20791 37.5801C4.31229 37.5802 4.41531 37.5567 4.50857 37.5098C4.60183 37.4629 4.68283 37.3944 4.74502 37.3105C4.84174 37.1795 4.96805 37.073 5.11367 37C5.2593 36.927 5.42002 36.8897 5.58291 36.8906C5.88729 36.9104 6.1877 36.9706 6.47598 37.0703L6.496 37.0762L6.62197 37.1113C7.05571 37.242 7.50503 37.3136 7.95791 37.3242C8.07291 37.3242 8.18191 37.3245 8.28091 37.3105C9.43387 37.2113 10.5283 36.7592 11.4149 36.0156L11.596 35.8926C11.72 35.8086 11.848 35.7209 11.987 35.6289C13.516 34.6039 13.8389 34.2765 13.4999 33.4355C13.4526 33.2797 13.4371 33.1151 13.4542 32.9531C13.4714 32.7911 13.521 32.6347 13.6 32.4922C13.7548 32.162 13.8265 31.7998 13.8091 31.4355C13.7917 31.0713 13.6855 30.7162 13.4999 30.4023C12.6709 28.7403 13.4919 26.2184 13.4999 26.1934C12.9081 24.5954 12.4031 22.9668 11.987 21.3145C11.494 19.1715 11.967 18.964 11.987 18.957L12.3009 18.625C13.0629 17.825 15.0869 15.6888 15.3529 15.4258C15.8735 15.0382 16.4301 14.7014 17.0149 14.4199L17.0359 14.4082L20.742 12.8945L23.4419 14.4082L24.621 15.4258L27.142 16.6035C28.6054 16.4706 30.0321 16.0717 31.352 15.4258C31.9937 15.0257 32.6708 14.684 33.3749 14.4082H33.3799C34.5108 13.5943 35.5284 12.6351 36.4059 11.5527C37.8909 9.73273 37.7499 9.36823 37.7489 9.36523V8.01758C37.9247 7.09344 38.2069 6.19317 38.59 5.33398V5.32422H39.7689L41.956 2.625C43.6636 2.74931 45.356 3.03224 47.011 3.4707C49.343 4.1367 49.6989 5.31222 49.7019 5.32422L51.3849 9.36328L57.6189 16.6055C57.6739 16.5955 63.377 15.5721 65.365 14.4141C66.5516 13.7255 67.538 12.7391 68.227 11.5527C69.6551 12.0937 71.116 12.5436 72.601 12.9004C73.5997 13.1925 74.5191 13.7073 75.2899 14.4062C75.2899 14.4062 75.298 14.4121 75.298 14.4141C76.2919 16.3091 77.1349 18.2791 77.819 20.3066C77.9411 20.6123 77.9938 20.941 77.9734 21.2695C77.953 21.5981 77.8599 21.9188 77.701 22.207C77.5755 22.3777 77.4169 22.5212 77.2345 22.6289C77.0522 22.7367 76.8499 22.8064 76.6399 22.834L74.1189 31.5898L76.6399 35.6367L80.516 37.3184L85.4009 39.168L88.0929 44.0527L85.4009 51.6289L76.6399 54.3281L75.2969 57.0195L71.0869 61.5645C71.3279 61.7735 77.004 66.6648 77.815 67.9648C78.677 69.3358 78.9929 69.8105 78.9929 69.8125L75.293 73.3477L71.0829 76.2148L56.5989 63.584L34.43 64.8418L17.0299 77.8965L17.034 77.8848ZM45.06 31.7715C42.291 31.7715 39.5843 32.5925 37.282 34.1309C34.9797 35.6692 33.1853 37.8559 32.1256 40.4141C31.066 42.9722 30.7888 45.7882 31.329 48.5039C31.8692 51.2196 33.2025 53.7139 35.1604 55.6719C37.1184 57.6298 39.6129 58.9637 42.3286 59.5039C45.0444 60.0441 47.8593 59.7667 50.4175 58.707C52.9757 57.6474 55.1622 55.8531 56.7006 53.5508C58.2389 51.2485 59.06 48.5404 59.06 45.7715C59.0565 42.0591 57.5801 38.5 54.955 35.875C52.3298 33.25 48.7704 31.7747 45.058 31.7715H45.06Z" fill="#F6F6F7"/>
<path d="M89.5622 36.9545C89.5722 35.9705 89.1772 35.6795 88.3162 35.5015C86.2722 35.0785 84.2672 34.4145 82.2082 34.1275C79.6482 33.7715 78.0082 32.6415 77.3782 30.0275C77.2537 29.6911 77.2095 29.3303 77.2493 28.9738C77.2891 28.6174 77.4116 28.2751 77.6072 27.9745C79.1732 25.5285 80.6392 23.0185 82.2012 20.5745C82.3278 20.4427 82.4246 20.2852 82.4851 20.1127C82.5456 19.9403 82.5683 19.7568 82.5518 19.5748C82.5353 19.3928 82.48 19.2165 82.3895 19.0577C82.299 18.8989 82.1755 18.7614 82.0272 18.6545C78.2939 14.9832 74.5969 11.2775 70.9362 7.5375C70.2362 6.8225 69.7362 6.94348 69.0072 7.40948C66.9552 8.72948 64.7802 9.8735 62.8192 11.3095C62.1884 11.8256 61.4162 12.1387 60.6041 12.2076C59.7919 12.2765 58.9779 12.098 58.2692 11.6955C57.6258 11.4853 57.0554 11.0966 56.6245 10.5746C56.1936 10.0527 55.9198 9.41903 55.8352 8.74749C55.3682 6.24049 54.6722 3.77848 54.1302 1.28448C53.9302 0.368476 53.6032 -0.015521 52.5432 0.000478953C47.3672 0.0751456 42.1902 0.0751456 37.0122 0.000478953C35.9432 -0.015521 35.6282 0.386478 35.4312 1.29348C34.9362 3.55948 34.2252 5.78848 33.8842 8.07448C33.816 8.98314 33.4646 9.84753 32.8794 10.546C32.2943 11.2446 31.5049 11.742 30.6222 11.9685C30.0923 12.2158 29.5056 12.316 28.9236 12.2586C28.3416 12.2013 27.7857 11.9884 27.3142 11.6425C25.0912 10.1625 22.7642 8.84248 20.5192 7.38848C20.387 7.2615 20.2289 7.16455 20.0558 7.10421C19.8827 7.04387 19.6985 7.02156 19.516 7.03884C19.3335 7.05611 19.1569 7.11256 18.9981 7.20431C18.8394 7.29605 18.7023 7.42095 18.5962 7.57049C14.9296 11.3038 11.2296 15.0075 7.49624 18.6815C7.35734 18.7777 7.24047 18.9023 7.15343 19.0471C7.0664 19.1919 7.01118 19.3535 6.99142 19.5213C6.97165 19.6891 6.98781 19.8592 7.03881 20.0202C7.08982 20.1813 7.17448 20.3297 7.28722 20.4555C8.48122 22.3115 9.44723 24.3385 10.8102 26.0555C11.5825 26.8648 12.0491 27.9177 12.1299 29.0334C12.2107 30.1492 11.9008 31.2583 11.2532 32.1705C11.1151 32.5071 10.8985 32.8058 10.6216 33.0419C10.3447 33.2779 10.0155 33.4444 9.66125 33.5275C6.82825 34.1275 4.03025 34.8945 1.20025 35.5125C0.300249 35.7125 -0.00576332 36.0635 0.000236683 37.0025C0.0469034 42.1785 0.0469034 47.3552 0.000236683 52.5325C-0.00976332 53.5425 0.295214 53.9705 1.27721 54.1695C3.32521 54.5845 5.33023 55.2555 7.39123 55.5575C9.84823 55.9175 11.4842 56.9395 12.1242 59.4915C12.2716 59.8472 12.3324 60.2328 12.3018 60.6167C12.2712 61.0005 12.1501 61.3716 11.9482 61.6995C10.3772 64.1415 8.92824 66.6635 7.33224 69.0895C7.19613 69.2319 7.09396 69.4032 7.03338 69.5906C6.9728 69.7781 6.95536 69.9768 6.98238 70.1719C7.00941 70.367 7.08017 70.5535 7.18941 70.7174C7.29866 70.8813 7.44356 71.0184 7.61324 71.1185C9.46424 72.7995 11.1582 74.6645 13.0882 76.2445C14.9462 77.7655 15.8582 79.3525 14.7012 81.6965C14.5275 82.1906 14.4327 82.7089 14.4202 83.2325C13.7312 88.5055 14.2782 93.8065 14.0522 99.0885C13.9992 100.333 14.3762 100.612 15.5852 100.606C25.3582 100.554 35.1312 100.577 44.9032 100.577C54.6182 100.577 64.3332 100.53 74.0472 100.623C75.6562 100.639 75.9722 100.163 75.8872 98.7025C75.7622 96.5575 75.8522 94.4025 75.8582 92.2475C75.8702 88.0065 76.0872 83.7475 74.7332 79.6305C74.5002 78.9215 74.8842 78.5625 75.2902 78.1305C77.5192 75.7555 79.7122 73.3465 81.9692 70.9995C82.1184 70.8913 82.2433 70.7533 82.336 70.5941C82.4287 70.4349 82.4872 70.2582 82.5077 70.0751C82.5282 69.8921 82.5103 69.7067 82.4552 69.531C82.4 69.3553 82.3087 69.193 82.1872 69.0545C80.6142 66.6135 79.1542 64.0995 77.5872 61.6545C77.3486 61.3724 77.2039 61.0228 77.1736 60.6546C77.1433 60.2863 77.2289 59.9178 77.4182 59.6005C77.7741 58.9338 78.0699 58.2367 78.3022 57.5175C78.3942 57.1596 78.5926 56.8381 78.8711 56.5953C79.1496 56.3525 79.4952 56.1999 79.8622 56.1575C82.7042 55.5725 85.5072 54.8045 88.3382 54.1655C88.5214 54.1569 88.7007 54.1097 88.8643 54.0268C89.028 53.944 89.1722 53.8276 89.2877 53.6851C89.4031 53.5425 89.487 53.3772 89.534 53.1999C89.581 53.0227 89.5899 52.8375 89.5602 52.6565C89.5122 47.4238 89.5129 42.1898 89.5622 36.9545ZM68.3272 94.6405C60.5342 94.5935 52.7412 94.6165 44.9472 94.6165C37.2122 94.6165 29.4772 94.5785 21.7472 94.6515C20.3352 94.6645 19.9942 94.2465 20.0472 92.9005C20.1722 89.4245 19.8552 85.9335 20.6852 82.4915C21.7245 77.8878 24.2549 73.7562 27.8834 70.7382C31.5118 67.7202 36.0353 65.9848 40.7512 65.8015C45.3702 65.6165 50.0422 65.3105 54.5952 66.7085C58.8985 68.0449 62.6801 70.6855 65.417 74.2651C68.1539 77.8447 69.7108 82.1864 69.8722 86.6895C69.9342 88.8395 69.8132 90.9965 69.9282 93.1425C69.9872 94.4355 69.4852 94.6475 68.3272 94.6405ZM31.1982 45.8585C31.18 44.0402 31.5203 42.2362 32.1996 40.5495C32.8789 38.8628 33.884 37.3265 35.1573 36.0283C36.4306 34.7302 37.9472 33.6958 39.6205 32.9841C41.2938 32.2724 43.091 31.8973 44.9092 31.8805C48.5504 31.8833 52.0443 33.3184 54.6362 35.8758C57.228 38.4332 58.7097 41.9077 58.7612 45.5485C58.7875 47.366 58.4521 49.1706 57.7747 50.8573C57.0972 52.544 56.0912 54.0792 54.8151 55.3736C53.539 56.6681 52.0183 57.6959 50.3414 58.3973C48.6645 59.0988 46.8649 59.4598 45.0472 59.4595C43.2447 59.4761 41.4567 59.1375 39.7851 58.4629C38.1135 57.7883 36.5912 56.791 35.3051 55.528C34.0191 54.2649 32.9944 52.7609 32.2898 51.1018C31.5851 49.4427 31.2142 47.661 31.1982 45.8585ZM83.5612 45.7395C83.5612 49.1605 83.5442 49.1485 80.2462 49.9185C78.2142 50.3925 75.8522 50.4245 74.2592 51.5415C72.6502 52.6695 72.6252 55.2725 71.5792 57.0585C70.1042 59.5765 70.0452 61.8305 72.0422 64.1445C73.0532 65.3165 73.6422 66.8445 74.5622 68.1075C75.2622 69.0725 75.0512 69.6485 74.2782 70.4465C71.9332 72.8715 71.9852 72.8965 69.8782 70.2195C66.6325 66.1144 62.2907 63.0124 57.3552 61.2725C62.8862 56.3225 65.5292 50.3215 64.5822 43.0435C64.2657 40.4365 63.4162 37.9225 62.0865 35.6578C60.7569 33.3932 58.9755 31.4263 56.8532 29.8795C52.8376 26.8549 47.8201 25.4745 42.8225 26.0195C37.8248 26.5644 33.2227 28.9936 29.9532 32.8125C23.4112 40.4215 23.0222 52.8735 32.6072 61.2615C28.599 62.7051 24.9653 65.0287 21.9732 68.0615C20.7829 69.2578 19.7248 70.5787 18.8172 72.0015C18.3452 72.7665 17.9942 72.6945 17.3542 72.1395C14.2412 69.4395 14.2232 69.4605 16.3392 65.9805C16.7981 65.1063 17.3212 64.2673 17.9042 63.4705C18.6075 62.7421 19.038 61.7936 19.1233 60.7847C19.2085 59.7759 18.9433 58.7685 18.3722 57.9325C17.4987 56.293 16.7748 54.578 16.2092 52.8085C16.0688 52.3125 15.7806 51.8712 15.3828 51.5433C14.9851 51.2154 14.4969 51.0167 13.9832 50.9735C11.7642 50.5505 9.58322 49.9505 7.36922 49.4735C6.40022 49.2655 5.88723 48.9115 5.95223 47.7635C6.06383 45.7884 6.06383 43.8086 5.95223 41.8335C5.89223 40.7625 6.34522 40.4335 7.25222 40.2335C9.68922 39.6875 12.1012 39.0265 14.5452 38.5205C14.8846 38.4753 15.2043 38.3349 15.4672 38.1157C15.7302 37.8964 15.9257 37.6072 16.0312 37.2815C17.0312 34.8055 18.0192 32.3265 19.0912 29.8815C19.2535 29.5461 19.3196 29.1722 19.2822 28.8015C19.2448 28.4308 19.1053 28.0777 18.8792 27.7815C17.5732 25.7205 16.3482 23.6075 15.0072 21.5705C14.4692 20.7535 14.3922 20.2275 15.1852 19.5085C16.6555 18.1845 18.0535 16.7825 19.3732 15.3085C20.1412 14.4435 20.7342 14.5565 21.5852 15.1085C23.6352 16.4295 25.7552 17.6405 27.8002 18.9695C28.097 19.1891 28.4493 19.3212 28.8173 19.3507C29.1854 19.3802 29.5543 19.306 29.8822 19.1365C32.2822 18.0995 34.6822 17.0835 37.1142 16.1275C37.4928 16.0021 37.8277 15.771 38.0791 15.4614C38.3306 15.1518 38.4881 14.7768 38.5332 14.3805C39.0242 11.9955 39.6832 9.64448 40.1952 7.26348C40.4022 6.30148 40.7952 5.9295 41.8262 5.9775C43.8002 6.0695 45.7842 6.0775 47.7572 5.9775C48.8212 5.9245 49.1572 6.3725 49.3572 7.3005C49.8762 9.6815 50.5222 12.0345 51.0222 14.4185C51.0611 14.7876 51.2023 15.1386 51.4299 15.4319C51.6574 15.7252 51.9623 15.9491 52.3102 16.0785C54.7856 17.0785 57.2499 18.1035 59.7032 19.1535C60.0351 19.315 60.405 19.3818 60.7724 19.3465C61.1397 19.3112 61.4902 19.1752 61.7852 18.9535C63.8852 17.6005 66.0562 16.3625 68.1562 15.0105C68.2907 14.8839 68.4513 14.7884 68.6267 14.7304C68.802 14.6725 68.988 14.6536 69.1714 14.6752C69.3548 14.6967 69.5313 14.7581 69.6885 14.8551C69.8456 14.952 69.9797 15.0822 70.0812 15.2365C71.4662 16.7275 72.9042 18.1735 74.3922 19.5605C74.5455 19.663 74.6741 19.7983 74.7688 19.9564C74.8635 20.1146 74.922 20.2918 74.9401 20.4753C74.9582 20.6588 74.9354 20.844 74.8733 21.0177C74.8113 21.1913 74.7115 21.349 74.5812 21.4795C73.2812 23.4735 72.1262 25.5635 70.8072 27.5455C70.5063 27.9301 70.3266 28.3955 70.291 28.8826C70.2554 29.3696 70.3655 29.8562 70.6072 30.2805C71.2728 31.4412 71.7892 32.6814 72.1442 33.9715C72.8732 37.5715 75.1442 39.0585 78.6122 39.4395C80.2492 39.6195 82.4972 39.6135 83.2962 40.8065C84.0942 41.9825 83.5622 44.0585 83.5612 45.7385V45.7395Z" fill="#E1E4E6"/>
<path d="M68.5474 111.025C76.7301 111.025 83.3634 104.391 83.3634 96.2086C83.3634 88.0259 76.7301 81.3926 68.5474 81.3926C60.3648 81.3926 53.7314 88.0259 53.7314 96.2086C53.7314 104.391 60.3648 111.025 68.5474 111.025Z" fill="white"/>
<path d="M85.1428 88.6543C83.5324 84.9854 80.7501 81.9546 77.2322 80.0369C73.7142 78.1193 69.6594 77.423 65.7032 78.0575C61.747 78.6919 58.1132 80.621 55.3713 83.5426C52.6293 86.4641 50.9342 90.2129 50.5518 94.2013C50.4978 94.7713 50.4688 95.3483 50.4688 95.9323C50.4688 96.2193 50.4758 96.5043 50.4898 96.7873C50.6156 99.4405 51.3238 102.033 52.5642 104.382C53.8045 106.731 55.5466 108.778 57.6669 110.378C59.7871 111.978 62.2335 113.092 64.8325 113.64C67.4314 114.188 70.1192 114.158 72.7051 113.551C75.291 112.944 77.7116 111.776 79.7952 110.128C81.8788 108.481 83.5743 106.395 84.7614 104.019C85.9484 101.643 86.598 99.0344 86.6639 96.3791C86.7298 93.7237 86.2105 91.0864 85.1428 88.6543V88.6543ZM74.0558 97.7603C74.2995 97.9996 74.4935 98.2848 74.6264 98.5995C74.7593 98.9142 74.8286 99.2521 74.8301 99.5937C74.8317 99.9353 74.7656 100.274 74.6356 100.59C74.5056 100.906 74.3143 101.193 74.0727 101.434C73.8312 101.676 73.5442 101.867 73.2283 101.997C72.9123 102.127 72.5738 102.193 72.2322 102.192C71.8906 102.19 71.5527 102.121 71.238 101.988C70.9233 101.855 70.6381 101.661 70.3988 101.417L68.5698 99.5893L66.7418 101.418C66.5024 101.662 66.2172 101.856 65.9025 101.989C65.5878 102.122 65.2499 102.191 64.9083 102.193C64.5667 102.194 64.2282 102.128 63.9123 101.998C63.5964 101.868 63.3093 101.677 63.0678 101.435C62.8262 101.194 62.6349 100.907 62.5049 100.591C62.3749 100.275 62.3088 99.9363 62.3104 99.5947C62.312 99.2531 62.3812 98.9152 62.5141 98.6005C62.647 98.2858 62.841 98.0006 63.0848 97.7613L64.9128 95.9323L63.0848 94.1043C62.841 93.8649 62.647 93.5797 62.5141 93.265C62.3812 92.9503 62.312 92.6124 62.3104 92.2708C62.3088 91.9292 62.3749 91.5907 62.5049 91.2748C62.6349 90.9588 62.8262 90.6718 63.0678 90.4303C63.3093 90.1887 63.5964 89.9974 63.9123 89.8674C64.2282 89.7374 64.5667 89.6713 64.9083 89.6729C65.2499 89.6745 65.5878 89.7437 65.9025 89.8766C66.2172 90.0095 66.5024 90.2035 66.7418 90.4473L67.6818 91.3873L68.5708 92.2763L69.8868 90.9603L70.3988 90.4483C70.6381 90.2045 70.9233 90.0105 71.238 89.8776C71.5527 89.7447 71.8906 89.6755 72.2322 89.6739C72.5738 89.6723 72.9123 89.7384 73.2283 89.8684C73.5442 89.9984 73.8312 90.1897 74.0727 90.4313C74.3143 90.6728 74.5056 90.9599 74.6356 91.2758C74.7656 91.5917 74.8317 91.9302 74.8301 92.2718C74.8286 92.6134 74.7593 92.9513 74.6264 93.266C74.4935 93.5807 74.2995 93.866 74.0558 94.1053L72.2268 95.9333L74.0558 97.7603Z" fill="#E1E4E6"/>
</svg>
