<svg id="close-sqaure" xmlns="http://www.w3.org/2000/svg" width="24" height="24" fill="currentColor" viewBox="0 0 24 24"><path fill="currentColor" d="M18.923 20.654H5.077A2.08 2.08 0 0 1 3 18.577V5.423c0-1.148.93-2.077 2.077-2.077h13.846c1.147 0 2.077.93 2.077 2.077v13.153c0 1.148-.93 2.077-2.077 2.077zM8.912 8h-.003a.664.664 0 0 0-.468 1.134l2.838 2.839-2.838 2.838a.66.66 0 0 0-.195.468v.003c0 .184.074.35.195.469.12.12.285.194.468.194h.006a.65.65 0 0 0 .466-.194l2.839-2.839 2.838 2.839c.12.119.285.193.467.193h.006a.66.66 0 0 0 .662-.66v-.004a.66.66 0 0 0-.194-.469l-2.839-2.838 2.839-2.84A.665.665 0 0 0 15.53 8h-.007a.66.66 0 0 0-.466.193l-2.838 2.839L9.38 8.192a.66.66 0 0 0-.466-.194H8.91z"/></svg>