<svg id="data-discovery-access-request" xmlns="http://www.w3.org/2000/svg" width="24" height="24" fill="currentColor" viewBox="0 0 24 24"><path fill="currentColor" d="M10.334 8.601h4.353c.179 0 .418-.12.537-.298l1.073-1.61h1.014c.358.954 1.43 1.49 2.385 1.133.954-.358 1.49-1.431 1.133-2.385-.239-.716-.954-1.252-1.789-1.252-.775 0-1.49.477-1.73 1.252h-1.37a.71.71 0 0 0-.537.298l-1.074 1.61h-4.054V8.6zm8.706-3.16c.358 0 .596.298.596.596a.598.598 0 1 1-.596-.596m-1.252 8.407A1.86 1.86 0 0 0 19.636 12a1.86 1.86 0 0 0-1.848-1.849 1.92 1.92 0 0 0-1.789 1.253H7.174v1.252h8.825a1.95 1.95 0 0 0 1.789 1.192m0-2.444c.358 0 .596.298.596.596a.597.597 0 0 1-1.192 0c0-.358.298-.596.596-.596m1.252 4.65c-.775 0-1.49.478-1.73 1.253h-1.013l-1.073-1.61a.63.63 0 0 0-.537-.298h-4.353v1.252h4.055l1.073 1.61c.12.179.299.298.537.298h1.371c.358.954 1.431 1.49 2.386 1.133.954-.358 1.49-1.431 1.133-2.385-.358-.775-1.074-1.252-1.849-1.252m0 2.505a.597.597 0 0 1 0-1.193c.298 0 .596.299.596.597.06.298-.238.596-.596.596M7.83 16.711v-1.253h1.252v1.253zm1.252-9.362V8.6H7.83V7.35zM7.95 18.559a7.53 7.53 0 0 0 3.995 1.133v1.252A8.93 8.93 0 0 1 3 12c0-2.385.954-4.651 2.624-6.32a8.94 8.94 0 0 1 6.32-2.624v1.252c-2.564 0-5.128 1.312-6.559 3.637-1.073 1.73-1.371 3.816-.894 5.784.477 2.087 1.729 3.757 3.458 4.83"/></svg>