<svg width="24" height="24" viewBox="0 0 24 24" fill="currentColor" xmlns="http://www.w3.org/2000/svg">
<path fill-rule="evenodd" clip-rule="evenodd" d="M9.63498 5.57696L4.57666 8.76183C3.84973 9.21953 3.40869 10.0184 3.40869 10.8774V19.5369H16.6215C18.0022 19.5369 19.1215 18.4176 19.1215 17.0369V11.8848H18.1215V17.0369C18.1215 17.8653 17.4499 18.5369 16.6215 18.5369H4.40869V10.8774C4.40869 10.362 4.67331 9.88268 5.10947 9.60806L10.4579 6.24056L9.63498 5.57696Z" fill="currentColor"/>
<path fill-rule="evenodd" clip-rule="evenodd" d="M16.5791 10.1479H15.353V8.92181H16.5791V10.1479Z" fill="currentColor"/>
<path fill-rule="evenodd" clip-rule="evenodd" d="M13 15.9999H9V14.9999H13V15.9999Z" fill="currentColor"/>
<path d="M20.364 5.49592C19.3622 4.10585 17.7293 3.20093 15.885 3.20093C14.0407 3.20093 12.4078 4.10581 11.406 5.49582L12.1924 6.11544C13.0103 4.95726 14.3593 4.20093 15.885 4.20093C17.4107 4.20093 18.7597 4.9573 19.5776 6.11553L20.364 5.49592Z" fill="currentColor"/>
<path d="M19.0789 6.50847C18.3781 5.49675 17.2089 4.83411 15.885 4.83411C14.5611 4.83411 13.392 5.49672 12.6912 6.50839L13.4788 7.12891C13.9946 6.34873 14.8797 5.83411 15.885 5.83411C16.8903 5.83411 17.7755 6.34877 18.2913 7.12899L19.0789 6.50847Z" fill="currentColor"/>
<path d="M17.7901 7.52388C17.3925 6.89063 16.6879 6.46967 15.885 6.46967C15.0821 6.46967 14.3776 6.8906 13.98 7.52381L14.7738 8.14924C14.9805 7.74579 15.4005 7.46967 15.885 7.46967C16.3695 7.46967 16.7895 7.74582 16.9962 8.14932L17.7901 7.52388Z" fill="currentColor"/>
</svg>
